<svg
  xmlns="http://www.w3.org/2000/svg"
  width="24"
  height="24"
  viewBox="0 0 24 24"
  fill="none"
  stroke="#06b6d4"
  stroke-width="2"
  stroke-linecap="round"
  stroke-linejoin="round"
  class="icon icon-tabler icons-tabler-outline icon-tabler-robot"
>
  <path stroke="none" d="M0 0h24v24H0z" fill="none"/>
  <path d="M6 5m0 1a1 1 0 0 1 1 -1h10a1 1 0 0 1 1 1v4a1 1 0 0 1 -1 1h-10a1 1 0 0 1 -1 -1z" />
  <path d="M9 12v5" />
  <path d="M15 12v5" />
  <path d="M5 17a2 2 0 0 0 2 2h10a2 2 0 0 0 2 -2" />
  <path d="M9 3v2" />
  <path d="M15 3v2" />
  <path d="M9 19v2" />
  <path d="M15 19v2" />
</svg>
